<?xml version="1.0" ?><!DOCTYPE svg  PUBLIC '-//W3C//DTD SVG 1.1//EN'  'http://www.w3.org/Graphics/SVG/1.1/DTD/svg11.dtd'><svg id="Layer_1" style="enable-background:new 0 0 1600 1200;" version="1.1" viewBox="0 0 1600 1200" xml:space="preserve" xmlns="http://www.w3.org/2000/svg" xmlns:vectornator="http://vectornator.io" xmlns:xlink="http://www.w3.org/1999/xlink"><style type="text/css">
	.st0{fill:#EFB940;}
	.st1{fill:#A97653;}
	.st2{fill:#FEFFFF;}
	.st3{fill:#8197E5;}
	.st4{fill:#2552C2;}
	.st5{fill:#2E2543;}
</style><g><g id="Layer_3"><g><path d="M1474.8,740.6h-403.1c-0.6,0-1-0.4-1-1V488.8c0-0.6,0.4-1,1-1s1,0.4,1,1v249.8h401.1V458.5h-268.8c-0.6,0-1-0.4-1-1      s0.4-1,1-1h269.8c0.6,0,1,0.4,1,1v282.1C1475.8,740.1,1475.4,740.6,1474.8,740.6z"/></g><g><path d="M752.8,564.9c13.7,33.5,25.3,102.2,25.3,102.2l-131.2,25c-32.4-5.9-25.1-97.3,4.2-132.4c29.3-35.1,60.3-21.9,60.3-21.9      S739.2,531.4,752.8,564.9z"/></g><g><path class="st0" d="M800,896.7c0,0-2.9,12.5-6.1,25.9c-2.5,10.6-7.3,22.7-5.6,38.2c3.9,35.1,27.8,65.2,27.8,65.2l-238.9,15.6      l20.5-106.4L508,911.7c0,0,21.5-101.4,38.3-152.1c16.8-50.7,119.1-53.1,119.1-53.1s48.7,32.3,63,33      c14.3,0.6,26.8-25.9,26.8-25.9s67.7,17.6,85.5,40.8c10.8,14,59.1,117,59.1,117l-77.5,65.9L800,896.7z"/></g><g><path class="st1" d="M678.5,608.6c-3.4-3.2-11.8-4.5-11.8-4.5c-10.4,6.1-8.6,14.2-5,23.9c3.6,9.8,16.9,10.5,16.9,10.5      c4.8,49.7-12.2,67.9-12.2,67.9s23.8,22.7,52.4,32.7c28.6,10.1,38.3-23,38.3-23c-17.2-11.7-12.5-52.7-12.5-52.7      c9.6-7.1,17.1-21.2,14.1-55.1c-3-33.9-31.9-54.4-31.9-54.4C725.8,578.3,678.5,608.6,678.5,608.6z"/></g><g><path class="st2" d="M634.9,611c0,0,22.8-5.3,30.3-6.6c7.1-1.3,22.2,13.8,22.2,13.8c45.9,2.2,73.3-18.6,73.3-18.6      c7.3-23.8-10.1-28.2-10.1-28.2l-63.8,16.3l-53.2,8.3C631.5,600,634.9,611,634.9,611z"/></g><g><path class="st1" d="M822.3,937.2c0,0,46.1,71.4,60.3,79.5c14.3,8.1,43.3,28.9,71.9,16.7c28.7-12.2,71.3-282.9,71.3-282.9      s21.6-5.1,26.6-6.8c5.1-1.7,57.6-41.6,57.6-41.6s-1.6-4.3-11.8-7.1c-10.1-2.8-46.9,20-53.5,22.5c-6.5,2.6-30.8-13.2-30.8-13.2      c16.5-4.3,32.4-22.4,26.3-23.5c-6.1-1.2-42.4,3.4-52.8,11.8c-10.3,8.4-83.6,202-83.6,202L891.7,878L822.3,937.2z"/></g><g><path class="st1" d="M508.6,910.8c0,0-5.4,19.6-5.9,49.7c-0.5,26,165.5,94.4,165.5,94.4l221.6-17.5c0,0-43.8-37.5-52.2-34.3      c-8.4,3.2-59.1,19.2-59.1,19.2L596,944.7l1.7-9.7L508.6,910.8z"/></g><g><path class="st3" d="M522.6,871.7c0,0-11.2-38.7-3.6-60c7.6-21.3,17.5-45.8,54.8-32.4c0,0,31.1,19.2,0.5,54.2      c0,0-45.1,38.3-49.8,38.2"/></g><g><path class="st3" d="M464.6,869c0,0,61.4-53.4-10.6-101.6c0,0-52.6-23.7-64.1,27.4C389.9,794.8,379.5,877.8,464.6,869z"/></g><g><path class="st3" d="M353.6,912.8c-9.4-26.1,32.2-37.3,54.7-25.7c12.7,6.5,29.3,30.4,29.3,30.4S376.2,975.4,353.6,912.8z"/></g><g><path d="M607.2,389.2c-0.2,0-0.5,0.1-0.7,0.3l-4.3,4.7c-0.4,0.4-0.3,1,0.1,1.4l10.1,9.2l-9.2,10.1c-0.4,0.4-0.3,1,0.1,1.4      l4.7,4.3c0.4,0.4,1,0.3,1.4-0.1l9.2-10.1l10.2,9.2c0.4,0.4,1,0.3,1.4-0.1l4.3-4.7c0.4-0.4,0.3-1-0.1-1.4l-10.1-9.2l9.2-10.1      c0.4-0.4,0.3-1-0.1-1.4c-0.6-0.5-4.1-3.8-4.7-4.3c-0.4-0.4-1-0.3-1.4,0.1l-9.2,10.1l-10.2-9.2      C607.7,389.2,607.4,389.1,607.2,389.2z M607.3,391.5l10.2,9.2c0.4,0.4,1,0.3,1.4-0.1l9.2-10.1c0.9,0.9,2.3,2.1,3.3,3l-9.2,10.1      c-0.4,0.4-0.3,1,0.1,1.4l10.1,9.2l-2.9,3.3l-10.2-9.2c-0.4-0.4-1-0.3-1.4,0.1l-9.2,10.1l-3.3-3l9.2-10.1c0.4-0.4,0.3-1-0.1-1.4      l-10.1-9.2L607.3,391.5z"/></g><g><path d="M883.9,672.5c-0.2,0-0.5,0.1-0.7,0.3l-4.3,4.7c-0.4,0.4-0.3,1,0.1,1.4l10.1,9.2l-9.2,10.1c-0.4,0.4-0.3,1,0.1,1.4      l4.7,4.3c0.4,0.4,1,0.3,1.4-0.1l9.2-10.1l10.2,9.2c0.4,0.4,1,0.3,1.4-0.1l4.3-4.7c0.4-0.4,0.3-1-0.1-1.4l-10.1-9.2l9.2-10.1      c0.4-0.4,0.3-1-0.1-1.4c-0.6-0.5-4.1-3.8-4.7-4.3c-0.4-0.4-1-0.3-1.4,0.1l-9.2,10.1l-10.2-9.2      C884.4,672.6,884.2,672.5,883.9,672.5z M884,674.8l10.2,9.2c0.4,0.4,1,0.3,1.4-0.1l9.2-10.1c0.9,0.9,2.3,2.1,3.3,3l-9.2,10.1      c-0.4,0.4-0.3,1,0.1,1.4l10.1,9.2l-2.9,3.3l-10.2-9.2c-0.4-0.4-1-0.3-1.4,0.1l-9.2,10.1l-3.3-3l9.2-10.1c0.4-0.4,0.3-1-0.1-1.4      l-10.1-9.2L884,674.8z"/></g><g><path d="M363.5,617.6c-0.2-0.2-0.4-0.3-0.7-0.3l-6.3,0.1c-0.5,0-1,0.4-1,1l0.1,13.6l-13.6,0.1c-0.5,0-1,0.4-1,1l0,6.3      c0,0.5,0.4,1,1,1l13.7-0.1L356,654c0,0.5,0.4,1,1,1l6.3-0.1c0.5,0,1-0.4,1-1l-0.1-13.6l13.6-0.1c0.5,0,1-0.4,1-1      c0-0.8,0-5.5,0-6.3c0-0.5-0.4-1-1-1L364,632l-0.1-13.7C363.8,618,363.7,617.7,363.5,617.6z M361.9,619.2l0.1,13.7      c0,0.5,0.4,1,1,1l13.7-0.1c0,1.3,0,3.1,0,4.4l-13.7,0.1c-0.5,0-1,0.4-1,1l0.1,13.6l-4.4,0.1l-0.1-13.7c0-0.5-0.4-1-1-1      l-13.7,0.1l0-4.4l13.7-0.1c0.5,0,1-0.4,1-1l-0.1-13.6L361.9,619.2z"/></g><g><path d="M871.6,592.9c-12.9,0-23.4-10.5-23.4-23.4s10.5-23.4,23.4-23.4c12.9,0,23.4,10.5,23.4,23.4S884.6,592.9,871.6,592.9z       M871.6,548c-11.8,0-21.4,9.6-21.4,21.4s9.6,21.4,21.4,21.4c11.8,0,21.4-9.6,21.4-21.4S883.5,548,871.6,548z"/></g><g><path class="st4" d="M812.9,1056h280.3l59.7-222.7c2.1-7.7-2.7-13.9-10.7-13.9H890.9c-8,0-16.1,6.2-18.2,13.9L812.9,1056z"/></g><g><path class="st4" d="M826,1034H556.3v22.2H826V1034z"/></g><g><path d="M812.7,1055.7c-0.1,0-0.2,0-0.3,0c-0.5-0.1-0.9-0.7-0.7-1.2l5.6-21.7c0.1-0.5,0.7-0.9,1.2-0.7c0.5,0.1,0.9,0.7,0.7,1.2      l-5.6,21.7C813.5,1055.4,813.1,1055.7,812.7,1055.7z"/></g><g><path d="M599.7,929.8c0,0-0.1,0-0.1,0c-0.5-0.1-0.9-0.6-0.8-1.1l14.9-102.2c0.1-0.5,0.6-0.9,1.1-0.8c0.5,0.1,0.9,0.6,0.8,1.1      L600.6,929C600.6,929.5,600.1,929.8,599.7,929.8z"/></g><g><path class="st2" d="M726.6,836.4c-0.2,0-0.4-0.1-0.6-0.2c-0.5-0.3-0.6-0.9-0.3-1.4l16-23.6c0.3-0.5,0.9-0.6,1.4-0.3      c0.5,0.3,0.6,0.9,0.3,1.4l-16,23.6C727.2,836.2,726.9,836.4,726.6,836.4z"/></g><g><path class="st2" d="M675.2,807.4c-0.1,0-0.1,0-0.2,0l-29.6-6.5c-0.5-0.1-0.9-0.7-0.8-1.2c0.1-0.5,0.6-0.9,1.2-0.8l29.6,6.5      c0.5,0.1,0.9,0.7,0.8,1.2C676.1,807.1,675.7,807.4,675.2,807.4z"/></g><g><path class="st2" d="M712.9,927.9c-0.4,0-0.7-0.2-0.9-0.6c-0.2-0.5,0-1.1,0.5-1.3l28.2-12.5c0.5-0.2,1.1,0,1.3,0.5      s0,1.1-0.5,1.3l-28.2,12.5C713.2,927.9,713.1,927.9,712.9,927.9z"/></g><g><path class="st2" d="M803.9,784.7c-0.3,0-0.5-0.1-0.7-0.3c-0.4-0.4-0.4-1,0.1-1.4l16.6-15.4c0.4-0.4,1-0.4,1.4,0.1      c0.4,0.4,0.4,1-0.1,1.4l-16.6,15.4C804.4,784.6,804.2,784.7,803.9,784.7z"/></g><g><path class="st2" d="M561.9,884.7c-0.3,0-0.5-0.1-0.7-0.3c-0.4-0.4-0.4-1,0-1.4l18.2-17.4c0.4-0.4,1-0.4,1.4,0      c0.4,0.4,0.4,1,0,1.4l-18.2,17.4C562.4,884.6,562.1,884.7,561.9,884.7z"/></g><g><path class="st2" d="M620.3,762.5c-0.3,0-0.6-0.2-0.8-0.4l-11.1-16c-0.3-0.5-0.2-1.1,0.3-1.4c0.5-0.3,1.1-0.2,1.4,0.3l11.1,16      c0.3,0.5,0.2,1.1-0.3,1.4C620.7,762.4,620.5,762.5,620.3,762.5z"/></g><g><path class="st2" d="M645.6,924.6c-0.4,0-0.7-0.2-0.9-0.5c-0.2-0.5-0.1-1.1,0.4-1.3l20.5-10.3c0.5-0.3,1.1-0.1,1.3,0.4      c0.2,0.5,0.1,1.1-0.4,1.3l-20.5,10.3C645.9,924.5,645.8,924.6,645.6,924.6z"/></g><g><path class="st2" d="M662,866.1c-0.4,0-0.8-0.3-1-0.7l-4.5-15.2c-0.2-0.5,0.1-1.1,0.7-1.2c0.5-0.2,1.1,0.1,1.2,0.7l4.5,15.2      c0.2,0.5-0.1,1.1-0.7,1.2C662.2,866.1,662.1,866.1,662,866.1z"/></g><g><path class="st2" d="M701.9,763.8c-0.5,0-0.9-0.3-1-0.8c-0.1-0.5,0.2-1.1,0.8-1.2l19-4.4c0.5-0.1,1.1,0.2,1.2,0.8      c0.1,0.5-0.2,1.1-0.8,1.2l-19,4.4C702.1,763.8,702,763.8,701.9,763.8z"/></g><g><path class="st2" d="M727.7,973.6c-0.4,0-0.7-0.2-0.9-0.6c-0.2-0.5,0-1.1,0.5-1.3l36.4-17.2c0.5-0.2,1.1,0,1.3,0.5      c0.2,0.5,0,1.1-0.5,1.3l-36.4,17.2C728,973.6,727.8,973.6,727.7,973.6z"/></g><g><path class="st2" d="M841.1,859.9c-0.1,0-0.2,0-0.3,0c-0.5-0.1-0.9-0.7-0.7-1.2l7.4-28.1c0.1-0.5,0.7-0.9,1.2-0.7      c0.5,0.1,0.9,0.7,0.7,1.2l-7.4,28.1C841.9,859.6,841.5,859.9,841.1,859.9z"/></g><g><path class="st0" d="M281.2,710l-35.3,43.6c-10.2,12.6-28.7,14.5-41.3,4.3l0,0c-12.6-10.2-14.5-28.7-4.3-41.3l35.3-43.6      c10.2-12.6,28.7-14.5,41.3-4.3l0,0C289.5,678.9,291.4,697.4,281.2,710z"/></g><g><path class="st0" d="M534.2,629.5c0-7.9,6.4-14.3,14.3-14.3c7.9,0,14.3,6.4,14.3,14.3c0,7.9-6.4,14.3-14.3,14.3      C540.6,643.9,534.2,637.5,534.2,629.5z"/></g><g><path d="M1336,456.8C1336,456.8,1336,456.8,1336,456.8c-0.6,0-1-0.5-1-1l0-12c0-0.6,0.4-1,1-1c0,0,0,0,0,0c0.6,0,1,0.5,1,1l0,12      C1337,456.3,1336.6,456.8,1336,456.8z M1336.1,432.8C1336.1,432.8,1336.1,432.8,1336.1,432.8c-0.6,0-1-0.5-1-1l0-12      c0-0.6,0.4-1,1-1c0,0,0,0,0,0c0.6,0,1,0.5,1,1l0,12C1337.1,432.3,1336.7,432.8,1336.1,432.8z M1336.2,408.8      C1336.2,408.8,1336.2,408.8,1336.2,408.8c-0.6,0-1-0.5-1-1l0-12c0-0.6,0.4-1,1-1c0,0,0,0,0,0c0.6,0,1,0.5,1,1l0,12      C1337.2,408.3,1336.8,408.8,1336.2,408.8z M1336.3,384.8C1336.3,384.8,1336.3,384.8,1336.3,384.8c-0.6,0-1-0.5-1-1l0-12      c0-0.6,0.4-1,1-1c0,0,0,0,0,0c0.6,0,1,0.5,1,1l0,12C1337.3,384.3,1336.9,384.8,1336.3,384.8z M1336.4,360.8      C1336.4,360.8,1336.4,360.8,1336.4,360.8c-0.6,0-1-0.5-1-1l0-12c0-0.6,0.4-1,1-1c0,0,0,0,0,0c0.6,0,1,0.5,1,1l0,12      C1337.4,360.3,1337,360.8,1336.4,360.8z M1336.5,336.8C1336.5,336.8,1336.5,336.8,1336.5,336.8c-0.6,0-1-0.5-1-1l0-12      c0-0.6,0.4-1,1-1c0,0,0,0,0,0c0.6,0,1,0.5,1,1l0,12C1337.5,336.3,1337.1,336.8,1336.5,336.8z M1336.6,312.8      C1336.6,312.8,1336.6,312.8,1336.6,312.8c-0.6,0-1-0.5-1-1l0-12c0-0.6,0.4-1,1-1c0,0,0,0,0,0c0.6,0,1,0.5,1,1l0,12      C1337.6,312.3,1337.2,312.8,1336.6,312.8z M1336.7,288.8C1336.7,288.8,1336.7,288.8,1336.7,288.8c-0.6,0-1-0.5-1-1l0-12      c0-0.6,0.4-1,1-1c0,0,0,0,0,0c0.6,0,1,0.5,1,1l0,12C1337.7,288.3,1337.3,288.8,1336.7,288.8z M1335.7,265.9      C1335.7,265.9,1335.7,265.9,1335.7,265.9l-12-0.1c-0.6,0-1-0.5-1-1c0-0.6,0.5-1,1-1c0,0,0,0,0,0l12,0.1c0.6,0,1,0.5,1,1      C1336.7,265.4,1336.3,265.9,1335.7,265.9z M1311.7,265.7C1311.7,265.7,1311.7,265.7,1311.7,265.7l-12-0.1c-0.6,0-1-0.5-1-1      c0-0.6,0.5-1,1-1c0,0,0,0,0,0l12,0.1c0.6,0,1,0.5,1,1C1312.7,265.3,1312.3,265.7,1311.7,265.7z M1287.7,265.6      C1287.7,265.6,1287.7,265.6,1287.7,265.6l-12-0.1c-0.6,0-1-0.5-1-1c0-0.6,0.5-1,1-1c0,0,0,0,0,0l12,0.1c0.6,0,1,0.5,1,1      C1288.7,265.1,1288.3,265.6,1287.7,265.6z M1263.7,265.4C1263.7,265.4,1263.7,265.4,1263.7,265.4l-12-0.1c-0.6,0-1-0.5-1-1      c0-0.6,0.5-1,1-1c0,0,0,0,0,0l12,0.1c0.6,0,1,0.5,1,1C1264.7,265,1264.3,265.4,1263.7,265.4z M1239.7,265.3      C1239.7,265.3,1239.7,265.3,1239.7,265.3l-12-0.1c-0.6,0-1-0.5-1-1c0-0.6,0.5-1,1-1c0,0,0,0,0,0l12,0.1c0.6,0,1,0.5,1,1      C1240.7,264.9,1240.3,265.3,1239.7,265.3z M1215.7,265.2C1215.7,265.2,1215.7,265.2,1215.7,265.2l-11.2-0.1c-0.6,0-1-0.5-1-1      c0-0.6,0.5-1,1-1c0,0,0,0,0,0l11.2,0.1c0.6,0,1,0.5,1,1C1216.7,264.7,1216.3,265.2,1215.7,265.2z"/></g><g><g><path class="st3" d="M1130.7,503.5c0-6.7,5.5-12.1,12.3-12.1c6.8,0,12.3,5.4,12.3,12.1c0,6.7-5.5,12.1-12.3,12.1       C1136.2,515.6,1130.7,510.2,1130.7,503.5z"/></g><g><path class="st3" d="M1120.8,542c0,3.1,11.4,2.4,22.9,2.4c11.1,0,22.3,0.7,22.3-2.1c0-11.8-11-22.2-22.9-22.2       C1131.2,520.1,1120.8,530.1,1120.8,542z"/></g></g><g><g><path class="st0" d="M1429.7,581.9c0-6.7-5.5-12.1-12.3-12.1c-6.8,0-12.3,5.4-12.3,12.1c0,6.7,5.5,12.1,12.3,12.1       C1424.2,594,1429.7,588.6,1429.7,581.9z"/></g><g><path class="st0" d="M1439.6,620.4c0,3.1-11.4,2.4-22.9,2.4c-11.1,0-22.3,0.7-22.3-2.1c0-11.8,11-22.2,22.9-22.2       C1429.3,598.4,1439.6,608.5,1439.6,620.4z"/></g></g><g><g><path class="st0" d="M1154.1,666.6c0-6.7-5.5-12.1-12.3-12.1s-12.3,5.4-12.3,12.1c0,6.7,5.5,12.1,12.3,12.1       S1154.1,673.3,1154.1,666.6z"/></g><g><path class="st0" d="M1164,705c0,3.1-11.4,2.4-22.9,2.4c-11.1,0-22.3,0.7-22.3-2.1c0-11.8,11-22.2,22.9-22.2       C1153.6,683.1,1164,693.2,1164,705z"/></g></g><g><path class="st0" d="M1199.5,494.8h227.9c6.7,0,12.2,5.5,12.2,12.2v26.3c0,6.7-5.5,12.2-12.2,12.2h-227.9      c-6.7,0-12.2-5.5-12.2-12.2v-26.3C1187.4,500.2,1192.8,494.8,1199.5,494.8z"/></g><g><path class="st4" d="M1360.9,573.2H1133c-6.7,0-12.2,5.5-12.2,12.2v26.3c0,6.7,5.4,12.2,12.2,12.2h227.9      c6.7,0,12.2-5.5,12.2-12.2v-26.3C1373.1,578.6,1367.6,573.2,1360.9,573.2z"/></g><g><path class="st3" d="M1428.9,656H1201c-6.7,0-12.2,5.5-12.2,12.2v26.3c0,6.7,5.5,12.2,12.2,12.2h227.9c6.7,0,12.2-5.5,12.2-12.2      v-26.3C1441.1,661.5,1435.6,656,1428.9,656z"/></g><g><path d="M962.6,619.3c-0.5,0-1-0.4-1-1c0-0.6,0.4-1,1-1l12-0.1c0.6,0,1,0.4,1,1c0,0.6-0.4,1-1,1L962.6,619.3      C962.6,619.3,962.6,619.3,962.6,619.3z M986.6,619.2c-0.5,0-1-0.4-1-1c0-0.6,0.4-1,1-1l12-0.1c0.6,0,1,0.4,1,1c0,0.6-0.4,1-1,1      L986.6,619.2C986.6,619.2,986.6,619.2,986.6,619.2z M1010.6,619c-0.5,0-1-0.4-1-1c0-0.6,0.4-1,1-1l12-0.1c0.6,0,1,0.4,1,1      c0,0.6-0.4,1-1,1L1010.6,619C1010.6,619,1010.6,619,1010.6,619z M1034.6,618.9c-0.5,0-1-0.4-1-1c0-0.6,0.4-1,1-1l12-0.1      c0.6,0,1,0.4,1,1c0,0.6-0.4,1-1,1L1034.6,618.9C1034.6,618.9,1034.6,618.9,1034.6,618.9z M1058.5,618.7c-0.5,0-1-0.4-1-1      c0-0.6,0.4-1,1-1l12-0.1c0.6,0,1,0.4,1,1c0,0.6-0.4,1-1,1L1058.5,618.7C1058.6,618.7,1058.6,618.7,1058.5,618.7z M958.9,611      C958.9,611,958.9,611,958.9,611c-0.6,0-1-0.5-1-1l0.1-12c0-0.5,0.5-1,1-1c0,0,0,0,0,0c0.6,0,1,0.5,1,1l-0.1,12      C959.9,610.6,959.5,611,958.9,611z M959.2,587C959.2,587,959.2,587,959.2,587c-0.6,0-1-0.5-1-1l0.1-12c0-0.5,0.5-1,1-1      c0,0,0,0,0,0c0.6,0,1,0.5,1,1l-0.1,12C960.2,586.6,959.7,587,959.2,587z M959.4,563C959.4,563,959.4,563,959.4,563      c-0.6,0-1-0.5-1-1l0.1-12c0-0.6,0.4-1,1-1c0.6,0,1,0.5,1,1l-0.1,12C960.4,562.6,960,563,959.4,563z M959.7,539      C959.7,539,959.7,539,959.7,539c-0.6,0-1-0.5-1-1l0.1-12c0-0.6,0.4-1,1-1c0.6,0,1,0.5,1,1l-0.1,12      C960.7,538.6,960.2,539,959.7,539z M960,515.1C960,515.1,959.9,515.1,960,515.1c-0.6,0-1-0.5-1-1l0.1-12c0-0.6,0.4-1,1-1      c0.6,0,1,0.5,1,1l-0.1,12C960.9,514.6,960.5,515.1,960,515.1z"/></g><g><g><path class="st0" d="M1183.7,152.7c0-17.3,13.9-31.4,31.1-31.4c17.2,0,31.1,14.1,31.1,31.4s-13.9,31.4-31.1,31.4       C1197.6,184.1,1183.7,170,1183.7,152.7z"/></g><g><path class="st0" d="M1183.7,152.7c0-17.3,13.9-31.4,31.1-31.4c17.2,0,31.1,14.1,31.1,31.4s-13.9,31.4-31.1,31.4       C1197.6,184.1,1183.7,170,1183.7,152.7z"/></g><g><path class="st5" d="M1213.6,120c-12.7,0.6-24.4,8.6-29.1,21.2c-6.3,16.9,2.3,35.6,19.2,41.9c16.9,6.3,35.6-2.3,41.9-19.2       c6.3-16.9-2.3-35.6-19.2-41.9C1222.2,120.4,1217.9,119.8,1213.6,120z M1213.7,121.9c4-0.2,8.1,0.4,12,1.9       c15.9,5.9,23.9,23.6,18,39.4c-5.9,15.9-23.5,23.9-39.4,18c-15.9-5.9-23.9-23.5-18-39.4C1190.7,129.9,1201.8,122.4,1213.7,121.9       z"/></g><g><path class="st5" d="M1174.3,99.7c-0.9,0.1-1.6,0.5-2.2,1c-6.9,6.1,7.9,32.9,32.6,60.7c24.7,27.8,49.5,45.7,56.4,39.6       c4.9-4.3-0.9-18.7-14.1-37.5c-0.3-0.4-0.9-0.5-1.4-0.2c-0.4,0.3-0.5,0.9-0.2,1.4c12.5,17.8,18.1,31.7,14.4,34.9       c-5.5,4.9-29.9-12.7-53.6-39.4s-38.2-53.1-32.7-58c3.5-3.1,17.3,4.8,33.7,19.3c0.4,0.4,1,0.3,1.4-0.1c0.4-0.4,0.3-1-0.1-1.4       C1193.2,106.5,1180.4,98.6,1174.3,99.7z"/></g></g><g><path class="st0" d="M1196.1,912.8l92.9-45.1l-7.4,103L1196.1,912.8z"/></g><g><path class="st3" d="M653.1,241.7c0-12.3,10-22.3,22.3-22.3c12.3,0,22.3,10,22.3,22.3c0,12.3-10,22.3-22.3,22.3      C663.1,263.9,653.1,254,653.1,241.7z"/></g></g><g id="Layer_2_1_"><g><path d="M697.6,617.8c-7.5,0-13.3-1.4-15.5-4.8c-9.8-15.6-47-1.2-47.3-1c-0.3,0.1-0.6,0.1-0.8,0c-0.3-0.1-0.4-0.4-0.5-0.6      c-0.1-0.4-2.5-8.9-1.3-15.9c0.1-0.4,0.4-0.8,0.8-0.8c0.5-0.1,48.6-6.9,56-8.1c7.6-1.2,53.5-14.4,60.6-16.5      c4.7-1.4,10.7,5.5,13.4,12.9c3.6,10.2,0.7,18.5-8,22.1C742.5,610.3,715.3,617.8,697.6,617.8z M664.4,603.7c8,0,15.5,2,19.4,8.2      c5.9,9.4,50.4-0.3,70.5-8.7c11.2-4.7,8.1-16.2,6.9-19.6c-2.7-7.6-8.1-12.5-10.9-11.7c-7.1,2.1-53.2,15.3-60.9,16.6      c-7,1.1-49.2,7.1-55.3,8c-0.7,5,0.5,10.9,1,13.2C639,608.3,652.3,603.7,664.4,603.7z"/></g><g><path d="M678.2,623.1c-0.4,0-0.7-0.2-0.9-0.5c0-0.1-3.7-7-8.8-11c-0.4-0.3-0.5-1-0.2-1.4c0.3-0.4,1-0.5,1.4-0.2      c5.4,4.3,9.1,11.4,9.3,11.7c0.3,0.5,0.1,1.1-0.4,1.4C678.5,623,678.3,623.1,678.2,623.1z"/></g><g><path d="M697.4,595.6c-0.4,0-0.8-0.3-1-0.7c-0.1-0.5,0.2-1.1,0.7-1.2c0.4-0.1,42-11.1,53.7-15c0.5-0.2,1.1,0.1,1.3,0.6      c0.2,0.5-0.1,1.1-0.6,1.3c-11.7,3.9-53.4,14.9-53.8,15C697.6,595.6,697.5,595.6,697.4,595.6z"/></g><g><path d="M685.3,614.3c2.9,2.5,29.4,0.9,50.2-3.8c15.3-3.5,26.3-10.7,26.3-10.7c7.2,25.6-79.3,26.5-80.4,21.4      c-1.1-5.1-6.8-14.3-6.8-14.3S680.3,609.9,685.3,614.3z"/></g><g><path d="M744.7,662.7l0,17.8c-48.8,0.5-63.2-42.3-63.2-42.3C719.5,677.1,744.7,662.7,744.7,662.7z"/></g><g><path d="M733.3,634.8c-8.1,0-16.4-3.7-16.9-4c-0.5-0.2-0.7-0.8-0.5-1.3c0.2-0.5,0.8-0.7,1.3-0.5c0.2,0.1,21.9,9.8,28.1-2.5      c0.2-0.5,0.9-0.7,1.3-0.4s0.7,0.8,0.4,1.3C744.1,633.1,738.7,634.8,733.3,634.8z"/></g><g><path d="M800,1000.7c-0.3,0-0.6-0.1-0.8-0.4c-0.9-1.1-21.5-26.6-5.7-85.1c15.6-57.7,8.4-91.9,8.4-92.2c-0.1-0.5,0.2-1.1,0.8-1.2      c0.5-0.1,1.1,0.2,1.2,0.8c0.1,0.3,7.4,35-8.4,93.2c-15.6,57.5,5.1,83,5.3,83.3c0.4,0.4,0.3,1.1-0.1,1.4      C800.4,1000.6,800.2,1000.7,800,1000.7z"/></g><g><path d="M523.5,1062.6H459c-14.6,0-26.5-11.9-26.5-26.5v-98.5c0-0.6,0.4-1,1-1H549c0.6,0,1,0.4,1,1v98.5      C550,1050.7,538.1,1062.6,523.5,1062.6z M434.4,938.6v97.5c0,13.5,11,24.5,24.5,24.5h64.5c13.5,0,24.5-11,24.5-24.5v-97.5H434.4      z"/></g><g><path d="M486.6,936.2c-0.4,0-0.8-0.3-1-0.7c-0.3-1-28.2-97.1-55.1-131.2c-0.3-0.4-0.3-1.1,0.2-1.4c0.4-0.3,1.1-0.3,1.4,0.2      c27.2,34.4,55.1,130.9,55.4,131.9c0.2,0.5-0.2,1.1-0.7,1.2C486.8,936.2,486.7,936.2,486.6,936.2z"/></g><g><path d="M466.8,937.9c-0.2,0-0.5-0.1-0.7-0.2c-34-29.9-85.8-30.3-86.3-30.3c-0.6,0-1-0.4-1-1c0-0.6,0.4-1,1-1c0,0,0,0,0,0      c0.5,0,53,0.4,87.6,30.8c0.4,0.4,0.5,1,0.1,1.4C467.4,937.8,467.1,937.9,466.8,937.9z"/></g><g><path d="M505,940.4c-0.1,0-0.1,0-0.2,0c-0.5-0.1-0.9-0.6-0.8-1.2c0.7-3.5,17.9-87,43-116.4c0.4-0.4,1-0.5,1.4-0.1      c0.4,0.4,0.5,1,0.1,1.4c-24.8,29-42.4,114.6-42.6,115.5C505.9,940.1,505.5,940.4,505,940.4z"/></g><g><path d="M886,244c-0.2,0-0.5-0.1-0.6-0.2c-0.4-0.4-0.5-1-0.1-1.4c5.6-6.7,8.8-11.8,8.9-11.9c0.3-0.4,0.8-0.6,1.3-0.4      c3.2,1.6,5.5,3.4,7.9,8.1c0.3,0.5,0.1,1.1-0.4,1.3c-0.5,0.3-1.1,0.1-1.3-0.4c-2-3.8-3.8-5.5-6.2-6.8c-1.1,1.7-4.1,6.1-8.5,11.3      C886.5,243.8,886.2,244,886,244z"/></g><g><path d="M896.2,281.5c-10.3,0-20.6-10.6-22.6-12.8c-4,0.3-7.5-1.5-9.4-4.7c-1.8-3-1.7-6.6,0.1-9.2c0.3-0.5,0.9-0.6,1.4-0.2      c0.5,0.3,0.6,0.9,0.2,1.4c-1.4,2-1.4,4.7,0,7.1c1.6,2.7,4.5,4.1,7.9,3.7c0.3,0,0.6,0.1,0.9,0.3c0.2,0.2,15.7,17.5,27.2,11      c5.6-3.2,7.6-11.6,5.4-22.6c-0.1-0.5,0.2-1.1,0.8-1.2c0.5-0.1,1.1,0.2,1.2,0.8c2.4,11.9,0,21.2-6.3,24.8      C900.7,281,898.5,281.5,896.2,281.5z"/></g><g><path d="M881.5,259.7c-3.5,0-6.3-0.7-7.4-2.4c-4.1-6.6-20.3-0.3-20.5-0.2c-0.3,0.1-0.6,0.1-0.8,0c-0.3-0.1-0.4-0.4-0.5-0.6      c0-0.2-1.2-4.1-0.6-7.4c0.1-0.4,0.4-0.8,0.8-0.8c0.2,0,21.7-3.1,25-3.6c3.4-0.5,23.9-6.4,27.1-7.4c2.5-0.7,5.4,2.6,6.6,6.1      c1.3,3.8,1,8.5-3.9,10.6C902.6,255.9,889.9,259.7,881.5,259.7z M866.6,252.3c3.8,0,7.3,0.9,9.2,3.9c2.3,3.6,20.9,0.1,30.8-4.1      c4.4-1.9,3.4-6.3,2.8-8.1c-1.1-3.2-3.3-5.1-4.2-4.9c-3.3,1-23.8,6.8-27.3,7.4c-3,0.5-20.5,3-24.3,3.5c-0.2,1.7,0.1,3.6,0.4,4.7      C856.2,253.9,861.6,252.3,866.6,252.3z"/></g><g><path d="M867.7,300c-0.2,0-0.4-0.1-0.6-0.2c-0.5-0.3-0.6-0.9-0.3-1.4c8.8-12.7,4.9-29.9,4.9-30.1c-0.1-0.5,0.2-1.1,0.7-1.2      c0.5-0.1,1.1,0.2,1.2,0.7c0.2,0.7,4.2,18.2-5.2,31.7C868.3,299.9,868,300,867.7,300z"/></g><g><path d="M870.7,277.7c-0.1,0-0.2,0-0.3-0.1c-0.2-0.1-16-5.4-17.9-21.1c-0.1-0.5,0.3-1,0.9-1.1c0.6-0.1,1,0.3,1.1,0.9      c1.7,14.4,16.4,19.4,16.5,19.4c0.5,0.2,0.8,0.7,0.6,1.3C871.5,277.4,871.1,277.7,870.7,277.7z"/></g><g><path d="M852.8,250.1c-0.1,0-0.2,0-0.3,0c-0.5-0.1-0.8-0.7-0.7-1.2c0.2-0.8,5.3-18.9,18.4-22.6c12.9-3.6,17.6-1.7,25.2,3.6      c0.5,0.3,0.6,0.9,0.3,1.4c-0.3,0.5-0.9,0.6-1.4,0.3c-7.2-5-11.4-6.7-23.6-3.3c-12,3.3-16.9,21-17,21.2      C853.7,249.8,853.2,250.1,852.8,250.1z"/></g><g><path d="M854.2,235.4c-6.1,0-11.1-5-11.1-11.1c0-6.1,5-11.1,11.1-11.1s11.1,5,11.1,11.1C865.3,230.4,860.3,235.4,854.2,235.4z       M854.2,215.3c-5,0-9.1,4.1-9.1,9.1c0,5,4.1,9.1,9.1,9.1s9.1-4.1,9.1-9.1C863.3,219.3,859.2,215.3,854.2,215.3z"/></g><g><path d="M872.8,262c-0.4,0-0.7-0.2-0.9-0.5c0,0-1.6-3-3.8-4.8c-0.4-0.3-0.5-1-0.2-1.4c0.3-0.4,1-0.5,1.4-0.2      c2.5,2,4.2,5.2,4.3,5.4c0.3,0.5,0.1,1.1-0.4,1.4C873.1,262,872.9,262,872.8,262z"/></g><g><path d="M881.4,249.7c-0.4,0-0.8-0.3-1-0.7c-0.1-0.5,0.2-1.1,0.7-1.2c0.2,0,18.8-4.9,24-6.7c0.5-0.2,1.1,0.1,1.3,0.6      c0.2,0.5-0.1,1.1-0.6,1.3c-5.3,1.8-23.3,6.5-24.1,6.7C881.5,249.7,881.4,249.7,881.4,249.7z"/></g><g><path d="M875.9,257.5c1.3,1.1,13.2,0.4,22.4-1.7c6.9-1.6,11.8-4.8,11.8-4.8c3.2,11.4-35.5,11.8-36,9.6c-0.5-2.3-3.1-6.4-3.1-6.4      S873.7,255.6,875.9,257.5z"/></g><g><path d="M907.9,304.3c-0.2,0-0.4-0.1-0.6-0.2c-8.7-5.9-5.9-24.3-5.8-25.1c0.1-0.5,0.6-0.9,1.1-0.8c0.5,0.1,0.9,0.6,0.8,1.1      c0,0.2-2.7,17.9,5,23.1c0.5,0.3,0.6,0.9,0.3,1.4C908.5,304.1,908.2,304.3,907.9,304.3z"/></g><g><path d="M902.5,279.2l0,7.9c-21.8,0.2-28.3-18.9-28.3-18.9C891.3,285.6,902.5,279.2,902.5,279.2z"/></g><g><path d="M893.5,265.9C893.4,265.9,893.4,265.9,893.5,265.9c-0.6,0-1.1-0.5-1-1c0-0.6,0.5-1,1-1c0,0,0.1,0,0.1,0      c1.9,0,7-0.3,9.1-1.6c0.5-0.3,1.1-0.1,1.4,0.3c0.3,0.5,0.1,1.1-0.3,1.4C900.7,265.9,894.2,265.9,893.5,265.9z"/></g><g><path d="M894.8,314.8c-12.4,0-26.9-14.3-27.6-15c-0.4-0.4-0.4-1,0-1.4c0.4-0.4,1-0.4,1.4,0c0.2,0.2,16.8,16.6,28.7,14.1      c4.1-0.8,7.2-3.9,9.3-9c0.2-0.5,0.8-0.8,1.3-0.6c0.5,0.2,0.8,0.8,0.6,1.3c-2.3,5.8-5.9,9.2-10.7,10.2      C896.8,314.7,895.8,314.8,894.8,314.8z"/></g><g><path d="M839.1,402.9c-0.1,0-0.2,0-0.2,0l-43.4-10.4c-0.5-0.1-0.9-0.7-0.7-1.2c0.1-0.5,12.2-54.3,19.6-72.4      c7.6-18.7,51.9-21.4,53.8-21.5c0.5,0,1,0.4,1.1,0.9c0,0.6-0.4,1-0.9,1.1c-0.4,0-45,2.7-52.1,20.2c-6.8,16.7-17.6,63.8-19.3,71.2      l42.4,10.2c0.5,0.1,0.9,0.7,0.7,1.2C840,402.6,839.5,402.9,839.1,402.9z"/></g><g><path d="M936.5,403.2c-0.3,0-0.6-0.1-0.8-0.4c-0.4-0.4-0.3-1.1,0.1-1.4l33.9-27.9c-2.3-5.2-16.7-37.9-22.9-49.9      c-6.5-12.6-38.6-19.9-38.9-20c-0.5-0.1-0.9-0.7-0.8-1.2c0.1-0.5,0.7-0.9,1.2-0.8c1.4,0.3,33.3,7.6,40.2,21      c6.8,13,23.1,50.3,23.3,50.7c0.2,0.4,0.1,0.9-0.3,1.2L937.1,403C936.9,403.1,936.7,403.2,936.5,403.2z"/></g><g><path d="M927.2,430.9c-0.3,0-0.6-0.1-0.8-0.4c-0.4-0.5-9.8-12.1-2.7-38.5c7-25.7,3.8-40.8,3.7-41c-0.1-0.5,0.2-1.1,0.8-1.2      c0.5-0.1,1.1,0.2,1.2,0.8c0.1,0.6,3.3,15.8-3.8,41.9c-6.9,25.3,2.2,36.6,2.3,36.7c0.4,0.4,0.3,1.1-0.1,1.4      C927.7,430.8,927.5,430.9,927.2,430.9z"/></g><g><path d="M974.1,385.1c-0.3,0-0.6-0.2-0.8-0.4l-5.4-7.9c-0.3-0.5-0.2-1.1,0.3-1.4c0.5-0.3,1.1-0.2,1.4,0.3l5.4,7.9      c0.3,0.5,0.2,1.1-0.3,1.4C974.5,385.1,974.3,385.1,974.1,385.1z"/></g><g><path d="M971,393.7c-0.1,0-0.2,0-0.3-0.1c-0.5-0.2-0.8-0.8-0.6-1.3c1.4-3.9,33.2-94.6,40.5-100.5c6.7-5.5,20.7-6.2,24.3-4.8      c0.8,0.3,1.3,0.8,1.4,1.4c0.3,1.7-3.9,5.1-12.5,10c4,1.7,11,4.3,13.8,3.6c1.4-0.4,4.2-1.9,7.2-3.5c6.2-3.3,13.1-7,16.8-6      c2.8,0.8,4.4,1.8,4.8,2.9c0.2,0.6,0.1,1.2-0.1,1.5c-0.1,0.1-0.1,0.2-0.2,0.2c-0.9,0.7-22.3,18.1-28.1,19.5      c-5.5,1.3-9.7,3.1-9.7,3.2c-0.5,0.2-1.1,0-1.3-0.5c-0.2-0.5,0-1.1,0.5-1.3c0.2-0.1,4.4-1.9,10-3.3c4.3-1,20.4-13.6,26.8-18.8      c-0.3-0.3-1.1-0.9-3.4-1.5c-2.9-0.8-10.1,3-15.3,5.8c-3.2,1.7-6,3.2-7.6,3.6c-4.6,1.2-15.7-3.9-17-4.5c-0.3-0.2-0.6-0.5-0.6-0.9      c0-0.4,0.2-0.7,0.5-0.9c5.7-3.2,12-7.2,13.1-8.8c-2.5-1.1-16.2-0.4-22.3,4.5c-5.7,4.6-30.7,73.5-39.9,99.6      C971.8,393.5,971.5,393.7,971,393.7z"/></g><g><path d="M1024.2,351.9c-0.1,0-0.2,0-0.3,0c-0.5-0.1-0.9-0.7-0.7-1.2l8.8-33.6c0.1-0.5,0.7-0.9,1.2-0.7c0.5,0.1,0.9,0.7,0.7,1.2      l-8.8,33.6C1025,351.6,1024.6,351.9,1024.2,351.9z"/></g><g><path d="M1104.8,457.3H979.5c-0.3,0-0.6-0.1-0.8-0.4s-0.3-0.6-0.2-0.9l29-104.8c0.1-0.4,0.5-0.7,1-0.7h121.7      c0.3,0,0.6,0.1,0.8,0.4s0.3,0.6,0.2,0.9l-25.4,104.8C1105.7,457,1105.3,457.3,1104.8,457.3z M980.9,455.3H1104l25-102.8h-119.6      L980.9,455.3z"/></g><g><path d="M979.6,457.3L979.6,457.3l-115.4-0.1c-0.6,0-1-0.4-1-1v-9.5c0-0.6,0.4-1,1-1l117.8-0.1c0,0,0,0,0,0c0.6,0,1,0.4,1,1      s-0.4,1-1,1l-116.8,0.1v7.5l114.4,0.1c0.6,0,1,0.4,1,1C980.6,456.8,980.1,457.3,979.6,457.3z"/></g><g><path d="M981.4,446.4C981.4,446.4,981.3,446.4,981.4,446.4c-25.8-1.8-54.2-60.1-55.4-62.6c-0.2-0.5,0-1.1,0.5-1.3      c0.5-0.2,1.1,0,1.3,0.5c0.3,0.6,29.1,59.7,53.6,61.5c0.6,0,1,0.5,0.9,1.1C982.3,445.9,981.9,446.4,981.4,446.4z"/></g><g><path d="M838.6,402.1c-0.1,0-0.1,0-0.2,0c-0.5-0.1-0.9-0.7-0.8-1.2l9-40.6c0.1-0.5,0.6-0.9,1.2-0.8c0.5,0.1,0.9,0.7,0.8,1.2      l-9,40.6C839.4,401.8,839,402.1,838.6,402.1z"/></g><g><path d="M964.5,448.1c-0.3,0-0.6-0.1-0.8-0.4L953.3,433l-58.7,7.3c-0.2,0-0.5,0-0.7-0.2l-55.5-37.3c-0.5-0.3-0.6-0.9-0.3-1.4      c0.3-0.5,0.9-0.6,1.4-0.3l55.2,37.1l58.9-7.4c0.4,0,0.7,0.1,0.9,0.4l10.8,15.2c0.3,0.4,0.2,1.1-0.2,1.4      C964.9,448,964.7,448.1,964.5,448.1z"/></g><g><path d="M867.9,455.8c-0.1,0-0.3,0-0.4-0.1c-2.6-1.1-62.7-26-73.3-33.5c-11.3-7.9,0-30,0.5-30.9c0.3-0.5,0.9-0.7,1.3-0.4      c0.5,0.3,0.7,0.9,0.4,1.3c-0.1,0.2-11,21.4-1.1,28.4c10.5,7.4,72.3,33,73,33.3c0.5,0.2,0.8,0.8,0.5,1.3      C868.7,455.6,868.3,455.8,867.9,455.8z"/></g><g><path d="M1205.5,489.7h-450c-0.6,0-1-0.4-1-1V148.2c0-0.6,0.4-1,1-1h450c0.6,0,1,0.4,1,1v340.5      C1206.5,489.3,1206.1,489.7,1205.5,489.7z M756.5,487.7h448V149.2h-448V487.7z"/></g><g><path d="M1094.4,199.9H819.3c-3.9,0-7-3.1-7-7v-7.7c0-3.9,3.1-7,7-7h275.1c3.9,0,7,3.1,7,7v7.7      C1101.4,196.7,1098.2,199.9,1094.4,199.9z M819.3,180.2c-2.8,0-5,2.2-5,5v7.7c0,2.8,2.2,5,5,5h275.1c2.8,0,5-2.2,5-5v-7.7      c0-2.8-2.2-5-5-5H819.3z"/></g><g><path d="M1123.9,200.3c-5.9,0-10.6-4.8-10.6-10.6c0-5.9,4.8-10.6,10.6-10.6c5.9,0,10.7,4.8,10.7,10.6      C1134.6,195.5,1129.8,200.3,1123.9,200.3z M1123.9,181c-4.8,0-8.6,3.9-8.6,8.6c0,4.8,3.9,8.6,8.6,8.6c4.8,0,8.7-3.9,8.7-8.6      C1132.6,184.8,1128.7,181,1123.9,181z"/></g><g><path d="M1154.3,200.3c-5.9,0-10.7-4.8-10.7-10.6c0-5.9,4.8-10.6,10.7-10.6c5.9,0,10.6,4.8,10.6,10.6      C1165,195.5,1160.2,200.3,1154.3,200.3z M1154.3,181c-4.8,0-8.7,3.9-8.7,8.6c0,4.8,3.9,8.6,8.7,8.6s8.6-3.9,8.6-8.6      C1163,184.8,1159.1,181,1154.3,181z"/></g><g><path d="M1183.3,200.3c-5.9,0-10.7-4.8-10.7-10.6c0-5.9,4.8-10.6,10.7-10.6s10.7,4.8,10.7,10.6      C1194,195.5,1189.2,200.3,1183.3,200.3z M1183.3,181c-4.8,0-8.7,3.9-8.7,8.6c0,4.8,3.9,8.6,8.7,8.6s8.7-3.9,8.7-8.6      C1192,184.8,1188.1,181,1183.3,181z"/></g><g><path d="M1084,239.9c-0.2,0-0.4-0.1-0.6-0.2c-5.2-4.2-8.7-7.7-10.1-9.2c-2.1,1.7-3.5,3.6-4.6,7.5c-0.2,0.5-0.7,0.8-1.2,0.7      c-0.5-0.2-0.8-0.7-0.7-1.2c1.5-4.9,3.3-7,6.1-9.1c0.4-0.3,1-0.3,1.3,0.1c0,0,4,4.3,10.5,9.6c0.4,0.3,0.5,1,0.1,1.4      C1084.5,239.8,1084.3,239.9,1084,239.9z"/></g><g><path d="M1078.7,277.5c-1.4,0-2.7-0.2-4.1-0.7c-6.7-2.3-10.6-10.6-10.5-22.3c0-0.5,0.5-1,1-1c0,0,0,0,0,0c0.6,0,1,0.5,1,1      c-0.1,10.8,3.3,18.4,9.1,20.4c1.2,0.4,2.3,0.6,3.5,0.6c10.7,0,20.1-15.7,20.2-15.8c0.2-0.3,0.5-0.5,0.8-0.5      c3.3-0.3,5.8-2.1,6.8-4.9c0.9-2.4,0.4-5-1.3-6.6c-0.4-0.4-0.4-1,0-1.4c0.4-0.4,1-0.4,1.4,0c2.2,2.1,2.9,5.6,1.8,8.8      c-1.2,3.4-4.2,5.7-8,6.2C1098.7,263.8,1089.6,277.5,1078.7,277.5z"/></g><g><path d="M1082.1,254.6c-6.5,0-13.2-0.8-16.4-1.5c-5-1.1-6.2-5.5-5.6-9.3c0.6-3.6,2.7-7.3,5.2-7c3.2,0.3,23.6,2.2,26.9,2.1      c3.2-0.1,24.1-1.1,24.3-1.1c0.5,0,0.8,0.2,1,0.6c1.1,3,0.8,6.9,0.8,7.1c0,0.3-0.2,0.5-0.4,0.7c-0.2,0.2-0.5,0.2-0.8,0.2      c-4.6-0.9-17-1.9-19.3,3.9C1096.5,253.6,1089.5,254.6,1082.1,254.6z M1065.1,238.8c-0.8,0-2.5,2.1-3,5.3      c-0.3,1.8-0.4,6.1,4.1,7.1c10.1,2.2,28.4,2.2,29.9-1.6c2.9-7.3,16.3-5.9,20.4-5.3c0-1.1,0-2.9-0.5-4.4c-3.8,0.2-20.7,1-23.6,1.1      C1088.8,240.9,1068.4,239.1,1065.1,238.8C1065.1,238.8,1065.1,238.8,1065.1,238.8z"/></g><g><path d="M1105.2,458.4c-0.4,0-0.8-0.3-1-0.7c-0.2-0.5,0.1-1.1,0.7-1.2l20-5.9c2.9-2.8,40.6-39.5,44.4-45.7      c4-6.5,7.4-73.3,1.8-88c-4.3-11.4-17.2-14.6-29.6-17.6c-3.6-0.9-6.9-1.7-10.1-2.7c-22-7.2-31-34.7-31.4-35.8      c-0.2-0.5,0.1-1.1,0.6-1.3c0.5-0.2,1.1,0.1,1.3,0.6c0.1,0.3,9.1,27.7,30.1,34.5c3.1,1,6.4,1.8,9.9,2.7      c12.3,3.1,26.3,6.5,31,18.9c5.9,15.6,2.2,82.9-2,89.7c-4.1,6.6-43.2,44.6-44.9,46.3c-0.1,0.1-0.3,0.2-0.4,0.2l-20.2,6      C1105.3,458.4,1105.3,458.4,1105.2,458.4z"/></g><g><path d="M1104.5,269.1c-0.4,0-0.7-0.2-0.9-0.5c-0.3-0.5-0.1-1.1,0.4-1.4c0.1-0.1,13.1-7.4,12.1-21.3c0-0.6,0.4-1,0.9-1.1      c0.5,0,1,0.4,1.1,0.9c1.1,15.2-13,23.1-13.1,23.2C1104.8,269,1104.7,269.1,1104.5,269.1z"/></g><g><path d="M1116.4,239.7c-0.4,0-0.7-0.2-0.9-0.6c-0.1-0.2-7.9-15.9-19.8-16.9c-12.1-1-15.7,1.4-21.6,7.4c-0.4,0.4-1,0.4-1.4,0      c-0.4-0.4-0.4-1,0-1.4c6.3-6.4,10.3-9.1,23.2-8c13.1,1.1,21.1,17.4,21.5,18c0.2,0.5,0,1.1-0.5,1.3      C1116.7,239.7,1116.6,239.7,1116.4,239.7z"/></g><g><path d="M1099.7,254.6c-0.1,0-0.2,0-0.3,0c-0.5-0.2-0.8-0.7-0.7-1.3c0-0.1,1.1-3.5,3.1-5.9c0.4-0.4,1-0.5,1.4-0.1      c0.4,0.4,0.5,1,0.1,1.4c-1.7,2-2.7,5.1-2.7,5.2C1100.5,254.3,1100.1,254.6,1099.7,254.6z"/></g><g><path d="M1089.4,244.5C1089.3,244.5,1089.3,244.5,1089.4,244.5c-0.8-0.1-18.8-1.3-24.1-2c-0.5-0.1-0.9-0.6-0.9-1.1      c0.1-0.5,0.6-0.9,1.1-0.9c5.2,0.7,23.7,2,23.9,2c0.6,0,1,0.5,0.9,1.1C1090.3,244.1,1089.9,244.5,1089.4,244.5z"/></g><g><path d="M1096.1,250.9c-1,1.3-12.4,2.8-21.5,2.5c-6.8-0.2-12-2.4-12-2.4c-1,11.4,35.7,4.8,35.8,2.6c0.1-2.2,1.7-6.6,1.7-6.6      S1097.8,248.6,1096.1,250.9z"/></g><g><path d="M1028.1,351.5c-0.1,0-0.2,0-0.3,0c-0.5-0.2-0.8-0.7-0.7-1.2c0-0.1,2.3-7.9,4.9-21.3c2.7-14.1,28.2-23.3,29.3-23.7      c24.7-8.4,19.3-26.9,19.1-27.7c-0.2-0.5,0.1-1.1,0.7-1.2c0.5-0.2,1.1,0.1,1.2,0.7c0.1,0.2,6.1,21.2-20.3,30.2      c-0.2,0.1-25.4,9.3-28,22.2c-2.6,13.6-4.9,21.4-4.9,21.5C1028.9,351.2,1028.5,351.5,1028.1,351.5z"/></g><g><path d="M1158.1,281.9c-1.4,0-2.8-0.2-4.3-0.6c-20.8-5.5-36.9-26.7-37.5-27.6c-0.3-0.4-0.2-1.1,0.2-1.4c0.4-0.3,1.1-0.2,1.4,0.2      c0.2,0.2,16.4,21.6,36.5,26.9c4,1,7.6,0.5,10.6-1.7c8.2-5.8,10.9-21.6,11.6-26.9c-3.9,1.7-7.6,2.5-11.1,2.5      c-14.2,0-26-12.1-36-22.2c-1-1-2-2-3-3c-12.7-12.8-26.8-5.4-27.4-5.1c-0.5,0.3-1.1,0.1-1.4-0.4c-0.3-0.5-0.1-1.1,0.4-1.4      c0.2-0.1,15.9-8.5,29.7,5.4c1,1,2,2,3,3c12.9,13.2,27.6,28.2,46.4,18.6c0.3-0.2,0.7-0.1,1,0.1c0.3,0.2,0.5,0.6,0.4,0.9      c-0.1,0.9-2,22.6-12.6,30.1C1163.7,281,1161,281.9,1158.1,281.9z"/></g><g><path d="M1081.4,276.8c9.1-3.1,18.8-16.2,18.8-16.2c-5.3,16.4-18.7,24.8-18.7,24.8C1082.2,282.5,1081.4,276.8,1081.4,276.8z"/></g><g><path d="M1081.2,288.9c-0.5,0-0.9-0.3-1-0.8c-0.1-0.5,0.3-1.1,0.8-1.2c0.2,0,15.7-2.7,27.5-11.6c0.4-0.3,1.1-0.2,1.4,0.2      c0.3,0.4,0.2,1.1-0.2,1.4c-12.2,9.2-27.7,11.8-28.3,12C1081.3,288.9,1081.3,288.9,1081.2,288.9z"/></g><g><path d="M1118.6,400.2c-0.2,0-0.3,0-0.5-0.1c-0.5-0.3-0.6-0.9-0.4-1.4l16.2-28.6l-3.6-34c-0.1-0.5,0.3-1,0.9-1.1      c0.6-0.1,1,0.3,1.1,0.9l3.7,34.3c0,0.2,0,0.4-0.1,0.6l-16.4,28.9C1119.3,400,1119,400.2,1118.6,400.2z"/></g><g><path d="M1104.8,458.8c-0.5,0-1-0.4-1-1c0-0.6,0.4-1,1-1l60.7-1.6l-8.1-36.2c-0.1-0.5,0.2-1.1,0.8-1.2c0.5-0.1,1.1,0.2,1.2,0.8      l8.4,37.4c0.1,0.3,0,0.6-0.2,0.8c-0.2,0.2-0.5,0.4-0.8,0.4L1104.8,458.8C1104.8,458.8,1104.8,458.8,1104.8,458.8z"/></g><g><path class="st3" d="M483.7,417c-38.2,0-69.1,31-69.1,69.1c0,7.7,1.3,15,3.6,21.9h131c2.3-6.9,3.6-14.2,3.6-21.9      C552.8,447.9,521.9,417,483.7,417z"/></g><g><path d="M487.1,416c-0.5,0-1-0.4-1-1l-1.2-121.8c0-0.6,0.4-1,1-1c0.5,0,1,0.4,1,1l1.2,121.8C488.1,415.5,487.7,416,487.1,416      C487.1,416,487.1,416,487.1,416z"/></g></g></g></svg>