<?xml version="1.0" ?><svg id="图层_1" version="1.1" viewBox="0 0 4000 4000" xml:space="preserve" xmlns="http://www.w3.org/2000/svg" xmlns:xlink="http://www.w3.org/1999/xlink"><style>.st2,.st3,.st4,.st5,.st6{fill-rule:evenodd;clip-rule:evenodd;fill:#ffebe2}.st3,.st4,.st5,.st6{fill:#fff}.st4,.st5,.st6{fill:#006cff}.st5,.st6{fill:#c57dba}.st6{fill:#00021c}.st8{fill:#f99382}.st11,.st8,.st9{fill-rule:evenodd;clip-rule:evenodd}.st9{stroke:#24245b;stroke-width:8.3333;stroke-linecap:round;stroke-linejoin:round;stroke-miterlimit:12.5;fill:#f99382}.st11{fill:#24245b}.st14{fill:none;stroke:#24245b;stroke-width:8.3333;stroke-linecap:round;stroke-linejoin:round;stroke-miterlimit:12.5}</style><path d="M501 892.5h2998.1v2214.9H501z" fill="none"/><defs><path d="M501 892.5h2998.1v2214.9H501z" id="SVGID_1_"/></defs><clipPath id="SVGID_2_"><use overflow="visible" xlink:href="#SVGID_1_"/></clipPath><g clip-path="url(#SVGID_2_)"><path class="st2" d="M2212.8 1231.5c-6.5-30.6-33.5-52.5-64.7-52.5H561.5c-19.9 0-38.8 9-51.4 24.5-12.6 15.5-17.5 35.8-13.3 55.3 46.7 220.8 176.7 835.6 215.6 1019.2 6.5 30.6 33.5 52.5 64.7 52.5h1586.6c19.9 0 38.8-9 51.4-24.5 12.6-15.5 17.5-35.8 13.3-55.3-46.8-220.8-176.8-835.6-215.6-1019.2zM2488.2 2533.7c-6.5-30.6-33.5-52.5-64.7-52.5H836.9c-19.9 0-38.8 9-51.4 24.5-12.6 15.5-17.5 35.8-13.3 55.3 45.5 215.3 167.5 792 167.5 792h1721.8c0 .1-133.5-630.9-173.3-819.3z"/><path class="st3" d="M2036.7 1329.6c-2.7-12.6-13.8-21.7-26.7-21.7H737.8c-8.2 0-16.1 3.7-21.2 10.1-5.2 6.4-7.2 14.8-5.5 22.9 20.7 97.6 81.1 383.4 98.3 464.5 2.7 12.6 13.8 21.7 26.7 21.7h1272.2c8.2 0 16-3.7 21.2-10.1 5.2-6.4 7.2-14.8 5.5-22.9-20.7-97.6-81.2-383.4-98.3-464.5zM2311.6 2629.5c-2.7-12.6-13.8-21.7-26.7-21.7H1012.7c-8.2 0-16 3.7-21.2 10.1-5.2 6.4-7.2 14.8-5.5 22.9 24.2 114.3 102.8 486.2 102.8 486.2h1328.1c-.1 0-84.5-399.2-105.3-497.5zM1000.2 1922.4c85.6 0 169.4 67.3 187 150.3 17.5 83-37.7 150.3-123.4 150.3-85.6 0-169.4-67.4-187-150.3-17.5-83 37.8-150.3 123.4-150.3zM1313.7 1982.2c51.9 0 102.6 40.8 113.2 91 10.6 50.2-22.9 91-74.7 91-51.8 0-102.6-40.8-113.2-91-10.6-50.2 22.9-91 74.7-91zM1576.5 1982.2c51.9 0 102.6 40.8 113.2 91 10.6 50.2-22.8 91-74.7 91-51.9 0-102.6-40.8-113.2-91-10.6-50.2 22.9-91 74.7-91z"/><path class="st4" d="M921.1 2000.4c-.9-4.4-4.8-7.5-9.3-7.5h-52.1c-2.9 0-5.6 1.3-7.4 3.5a9.36 9.36 0 00-1.9 7.9c7.3 34.4 28.8 136.1 34.8 164.6.9 4.4 4.8 7.5 9.3 7.5h52.1c2.9 0 5.6-1.3 7.4-3.5 1.8-2.2 2.5-5.1 1.9-7.9-7.3-34.4-28.8-136.1-34.8-164.6zM950.2 1992.9c10.5 0 19.1-8.2 19.6-18.7 1.4-26.9 3.8-76.1 5.1-101.1.2-4.1 2.1-7.5 5.3-9.6 3.2-2.1 7.4-2.6 11.7-1.5l3.6.9c29.7 7.8 53.3 35.6 54.4 64.3 1 25.8 2.2 53.7 2.5 62.7.1 1.7 1.5 3 3.1 3h95.8c11.3 0 23 6.7 29.8 17.2 27.2 42.3 31.2 106.7 16.7 149.4-3.9 10.5-13.8 17-26.1 17H986.9c-7.2 0-14.2-5.8-15.7-13-7.1-33.7-26.2-123.9-33.3-157.7-1.5-7.2 3.1-13 10.2-13 .1.1.8.1 2.1.1zM1352.3 2086.4h21c1 0 1.9.6 2.4 1.5.4.9.3 2-.3 2.8-6.9 8.7-22.3 28.3-28.2 35.7-.6.8-1.5 1.3-2.5 1.4-1 .1-1.9-.2-2.7-.8-8.3-6.8-32.4-26.7-43.5-35.9-.9-.7-1.2-1.9-.8-3 .4-1.1 1.4-1.8 2.5-1.8h19.1s-9.8-46.2-12.7-60c-.2-1 0-1.9.6-2.7.6-.8 1.5-1.2 2.5-1.2h26.4c1.5 0 2.8 1.1 3.1 2.5 2.6 12 13.1 61.5 13.1 61.5zM1548.5 2058.5c8.1 0 16.1 6.6 17.8 14.7 1.7 8.1-3.5 14.7-11.6 14.7s-16.1-6.6-17.8-14.7c-1.8-8.1 3.4-14.7 11.6-14.7zm88.4 0c8.1 0 16.1 6.6 17.8 14.7 1.7 8.1-3.5 14.7-11.6 14.7s-16.1-6.6-17.8-14.7c-1.8-8.1 3.4-14.7 11.6-14.7zm-44.2 0c8.1 0 16.1 6.6 17.8 14.7 1.7 8.1-3.5 14.7-11.6 14.7s-16.1-6.6-17.8-14.7c-1.8-8.1 3.4-14.7 11.6-14.7z"/><path class="st5" d="M1271.5 1783.4c14.1 13.2-.7 51.6-33.2 85.7s-70.4 51-84.5 37.8c-14.2-13.2.8-51.6 33.2-85.7 32.5-34.1 70.4-51 84.5-37.8zM1328.8 2336.5c-7.6 10.3-44.1-5.2-81.4-34.7-37.4-29.4-61.6-61.7-54-72 7.6-10.3 44.1 5.2 81.5 34.7 37.2 29.4 61.4 61.7 53.9 72zM901.8 1860.2c-8.9 3.4-29.5-17.3-46-46.3-16.5-29-22.6-55.3-13.7-58.8 8.9-3.4 29.5 17.3 46 46.3 16.5 29 22.6 55.4 13.7 58.8zM1080.4 1859.4c-6.6-2.6-8.7-19.4-4.8-37.4 3.9-18.1 12.5-30.7 19-28.1 6.6 2.6 8.7 19.4 4.8 37.4-3.9 18.1-12.5 30.6-19 28.1z"/><path class="st6" d="M3116.5 1455.9l20.3 63.4s-3 20.8 28.7 65.7c25.9 36.8 19.1 69.3-10.4 84.3-22.9 11.7-65.6-4.1-70-44.5-4.5-40.5-12.2-153.5-12.2-153.5l43.6-15.4z"/><path class="st6" d="M3155.1 1364.8l-18.3 83.1s-3 20.8 28.7 65.8c25.9 36.8 19.1 69.3-10.4 84.3-22.9 11.7-65.6-4.1-70-44.5-4.5-40.5-12.2-153.5-12.2-153.5l82.2-35.2z"/><path class="st6" d="M3088.4 1494.7l11.1 64.4s-3 20.8 28.7 65.7c25.9 36.8 19.1 69.3-10.4 84.3-22.9 11.7-65.6-4.1-70-44.5-4.5-40.5-12.2-153.5-12.2-153.5l52.8-16.4zM2776.1 1519.6l-29.5 57.3s-3.4 20.5-46.5 53.5c-35.4 27-38.5 59.6-15.2 82.5 18.1 17.8 63 15.6 79.2-21.2 16.2-36.8 57-141 57-141l-45-31.1z"/><path class="st6" d="M2744.5 1417.9l-25.6 58s-2.1 20.3-42.4 55.2c-33 28.6-34.2 60.7-10 81.8 18.8 16.4 62.6 11.5 76.3-25.5 13.7-37 47.5-141.6 47.5-141.6l-45.8-27.9z"/><path class="st6" d="M2766.1 1472.9l-22.9 56.6s-1.4 19.6-39.2 54.4c-31 28.6-31.1 59.5-7.2 79.1 18.6 15.2 60.7 9.2 72.8-26.9 12.1-36.1 41.5-137.9 41.5-137.9l-45-25.3zM2742.4 1023.4c71-15.6 29.9 101.1-2.5 152.7-32.3 51.7-74.4 83.7-93.8 71.5-19.5-12.2-9-64 23.3-115.7 2.4-3.8 4.9-7.6 7.3-11.2-.9-43.6 16.6-64.4 16.6-64.4s14.3-23.7 49.1-32.9z"/><path d="M3369.3 1090.6c-26.6 0-51.4 21.6-55.3 48.2-7.2 48.2 43.3 92 72.4 102.2 32.2-10.2 95.6-54 102.8-102.2 4-26.6-14.4-48.2-41-48.2-16.3 0-31.9 8.1-42.5 20.5-6.9-12.4-20.1-20.5-36.4-20.5z" fill="#efc2e9"/><path class="st8" d="M1975.6 1941.6s.6-428.5 101.4-428.5c0 0 24-2 33.5 18 0 0 13.3-32.2 48.7-32.2 35.4 0 43.9 26.1 43.9 26.1s20.7-146.7 27-191c1.1-8 8.2-13.8 16.2-13.4 31.1 1.5 95.6 26.2 21.5 222.8 0 0 27-9.3 39.9 6.3 2 2.3 2.9 5.4 2.7 8.4-1.8 19.4-10.4 110.4-20.8 165.7-11.6 62.2-45.7 119.8-69.2 174.7l-244.8 43.1z"/><path class="st9" d="M2129.7 1771.4s-.2-81.9 98.7-88.2M2203.1 1525c14 30 18.8 178.4-37 178.4-39.4.1-42.2-29.6-42.2-29.6"/><path class="st9" d="M2110.4 1531c15.9 28.7 41 164.4-17.3 165.5-55.5 1.1-46.7-89.1-46.7-89.1M2267.8 1543.3s-60.2 9.8-39.4 139.9"/><path class="st4" d="M1942.3 1909.8s150.9-108.7 339.9 0L2337 2088l73.6 308.6-19.4 163.5s-49.9 271.3-179.5 271.3c-129.5 0-278.1-91.4-269.4-921.6z"/><g><defs><path d="M1942.3 1909.8s150.9-108.7 339.9 0L2337 2088l73.6 308.6-19.4 163.5s-49.9 271.3-179.5 271.3c-129.5 0-278.1-91.4-269.4-921.6z" id="SVGID_3_"/></defs><clipPath id="SVGID_4_"><use overflow="visible" xlink:href="#SVGID_3_"/></clipPath><g clip-path="url(#SVGID_4_)"><path class="st11" d="M2327.6 2274.1s-27.2 180.1-46.4 307.1c-12.1 80.4-45.1 156.2-95.6 219.9-118.5 149.5-331.8 418.9-331.8 418.9l445.2-352.9 73.2-520.6-44.6-72.4z"/></g></g><path class="st4" d="M2320.7 2418.7l-35.2-458.7s7.8-22.4 20.9-50.9c19.9-43 53.7-78.1 95.9-99.6 88.6-45.1 272.1-118.4 529.8-118.4 340.3 0 488.2 116.7 521.4 167.1 25.3 38.4 59.1 110.5 39.9 246.2l-173.1 1066.9-1077.5-7.4 77.9-745.2z"/><g><path class="st11" d="M2273.1 1819.7c-1.3-6.3-6.8-10.9-13.3-10.9H2227l63.2 318.6h43.9c.1-.1-49.9-251.8-61-307.7z"/><path class="st11" d="M2244.9 1819.7c-1.3-6.3-6.8-10.9-13.3-10.9h-72.2c-2.8 0-5.4 1.2-7.2 3.4-1.8 2.2-2.5 5-1.9 7.7 11.2 56.4 61 307.4 61 307.4h94.7s-50-251.7-61.1-307.6z"/></g><path class="st8" d="M2745.1 1030.1s-145.8 341.8-76.5 476.7c37.9 73.7 105.7 90.8 105.7 90.8l-33.3 118.1c-41.3 121.5 192.1 173.1 301.5 30.6 12.5-16.3 20.6-35.5 23.4-55.8 16.8-120.5 89.1-639.2 89.1-639.2s-228.7-172.9-409.9-21.2z"/><g><defs><path d="M2745.1 1030.1s-145.8 341.8-76.5 476.7c37.9 73.7 105.7 90.8 105.7 90.8l-33.3 118.1c-41.3 121.5 192.1 173.1 301.5 30.6 12.5-16.3 20.6-35.5 23.4-55.8 16.8-120.5 89.1-639.2 89.1-639.2s-228.7-172.9-409.9-21.2z" id="SVGID_5_"/></defs><clipPath id="SVGID_6_"><use overflow="visible" xlink:href="#SVGID_5_"/></clipPath><g clip-path="url(#SVGID_6_)"><path class="st11" d="M2774.3 1597.6s74.6 25.5 185.9-26.9c0 0-64.9 106.8-208.4 106.8H2702v-72.3l72.3-7.6z"/></g></g><path class="st11" d="M2734.3 1011s69-124.7 223.6-115.9c184.4 10.5 240.3 125.5 264.5 195 21.3 61.3 28.6 202.1-24.3 266.4l-29.3 36.8-97.6-324.1-238.7-88.3-98.2 30.1z"/><path class="st11" d="M2932.8 1129.1s60.1-6.9 80.7 45.3c1.2 2.9 4.5 4.3 7.4 3.2 2.9-1.1 4.4-4.5 3.2-7.4-23.7-60-92.6-52.5-92.6-52.5-3.1.3-5.4 3.2-5 6.3.3 3.2 3.2 5.5 6.3 5.1z"/><path class="st6" d="M3071.6 1058.3c23.7 5 32.2 60.2 18.8 123.2-13.4 63-43.5 110-67.2 105-23.7-5-32.2-60.2-18.8-123.2 13.4-63 43.5-110 67.2-105z"/><path class="st11" d="M2676.7 1120.9s30.7-95.4 172.9-95.4 227.7 119.8 238.8 164.8c11.1 45 32.4 82 48.4 257.8 0 0 35.5-28.7 54-59.2s12-230.8-91.6-345.6c-99-109.7-234-125.2-337.2-80.7-22.9 9.9-42.6 26.2-56.4 47-15.4 23-28 45.9-36.5 68.8-.3 1-.6 2-.8 3-1.1 5.6-3.5 24.8 8.4 39.5z"/><path class="st8" d="M3088.4 1190.2s62.6-31.7 102.9 10.3c5.5 5.8 10.7 12.9 15.2 21.8 41.3 81.1-53.5 195.6-159.1 195.6"/><g><path class="st11" d="M2847.2 1200.1s-22.9 69.2-32.5 98c-1.6 4.7-1.1 9.8 1.2 14.2 2.3 4.4 6.3 7.6 11 9 5.1 1.5 9.8 2.8 9.8 2.8 3 .9 6.2-.9 7.1-3.9.9-3-.9-6.2-3.9-7l-9.8-2.8c-1.8-.5-3.3-1.7-4.1-3.4-.9-1.7-1-3.6-.4-5.3l32.4-98c1-3-.6-6.2-3.6-7.2s-6.2.6-7.2 3.6zM2788.1 1439.1s23.8 17.5 58 13c22.2-2.9 49.1-15.2 76.4-48.4 2-2.4 1.6-6-.8-8-2.4-2-6-1.6-8 .8-24.9 30.2-49 41.7-69.2 44.4-29.4 3.9-49.8-10.9-49.8-10.9-2.5-1.9-6.1-1.3-8 1.2-1.7 2.4-1.1 6 1.4 7.9zM2734.4 1140s31-32.5 80.4-21.2c3.1.7 6.1-1.2 6.8-4.3s-1.2-6.1-4.3-6.8c-56.1-12.9-91.2 24.4-91.2 24.4-2.2 2.3-2.1 5.9.2 8 2.3 2.3 5.9 2.2 8.1-.1zM2776 1181.5c7.6 0 12.4 9.1 10.9 20.4-1.6 11.3-9 20.4-16.6 20.4-7.6 0-12.4-9.1-10.9-20.4 1.6-11.3 9-20.4 16.6-20.4zM2949 1190.2c7.6 0 12.4 9.1 10.9 20.4-1.6 11.3-9 20.4-16.6 20.4-7.6 0-12.4-9.2-10.9-20.4 1.6-11.3 9-20.4 16.6-20.4zM3132.9 1297.5c30.3-17.2 40.2-41.2 40.2-41.2 1.2-2.9-.2-6.2-3-7.4-2.9-1.2-6.2.2-7.4 3 0 0-7.5 17.6-29.3 32-.7-28.6-10.3-45.7-10.3-45.7-1.5-2.8-5-3.8-7.7-2.3-2.8 1.5-3.8 5-2.3 7.7 0 0 17.8 32.8 3.1 82.9-.9 3 .8 6.2 3.9 7.1 3 .9 6.2-.8 7.1-3.9 3.2-11.6 5-22.4 5.7-32.2z"/></g><path class="st11" d="M3425.2 2220.6c-106.3 387.3-239.1 575.6-338.3 666.8-66.9 61-168.8 62.7-237.8 4-101.4-86.4-247.7-211.1-247.7-211.1s651.6-207.5 823.8-459.7z"/><path clip-rule="evenodd" d="M3419.9 2219.9c-110.9 323.3-291.4 523.2-409.3 626.7-61.9 54.1-154.3 54-216.1-.2-181.7-159.4-546.8-479.4-546.8-479.4l200.2-233.1 423 348.9 226.7-485.2" fill="#006cff" fill-rule="evenodd" stroke="#24245b" stroke-linecap="round" stroke-linejoin="round" stroke-miterlimit="12.5" stroke-width="8.333"/><path class="st14" d="M2870.9 2482.8l51.3 40.9"/><path class="st11" d="M2316.6 2222.8c58.2-65.9 119.1-107.3 136-92.4s-16.6 80.5-74.8 146.4-119.1 107.4-136 92.4c-16.9-14.8 16.6-80.5 74.8-146.4z"/><path class="st8" d="M2246.7 2324.2c-31.7-32.7-53.3-54-76.2-89.7-45.9-71.5-29.7-128-29.7-128-32.5-44.8 7.3-82.4 7.3-82.4-17.6-47.8 28.6-71.3 28.6-71.3l3 15.2s82.3 89 116 107.2c23.2-3.9 26.2-10 26.2-10l-21.8-109.6c7.2 8.4 9.3 10.1 30.1 36.3 21.9 27.5 125.8 159.5 125.8 159.5-5.6 28-35.1 76.6-78.2 125.4-33.1 37.5-67.2 67.1-93.4 82.9l-4.1-3.8c-6.2-5.8-12.4-11.6-18.7-17.4l-14.9-14.3z"/><g><path class="st14" d="M2137.7 2099.6s20.6 46.9 49.9 80.9M2148.1 2021.8s4.4 23.8 79 105.5"/></g><path class="st14" d="M2680 1742.3s-20.5 141 151.3 150.9c230.3 13.2 284.4-151.1 284.4-151.1"/></g></svg>